<mxfile host="app.diagrams.net" modified="2020-09-24T10:10:13.352Z" agent="5.0 (Windows NT 10.0; Win64; x64) AppleWebKit/537.36 (KHTML, like Gecko) Chrome/84.0.4147.135 YaBrowser/20.8.3.115 Yowser/2.5 Safari/537.36" etag="r_H4q4ljMWpirNIZld_s" version="13.7.5" type="github">
  <diagram id="e5AHPpAVry_jj2Lpkyn_" name="Page-1">
    <mxGraphModel dx="1038" dy="552" grid="1" gridSize="10" guides="1" tooltips="1" connect="1" arrows="1" fold="1" page="1" pageScale="1" pageWidth="827" pageHeight="1169" math="0" shadow="0">
      <root>
        <mxCell id="0" />
        <mxCell id="1" parent="0" />
        <mxCell id="BeoJGPq0pLL4U1cy-FSC-3" value="" style="edgeStyle=orthogonalEdgeStyle;rounded=0;orthogonalLoop=1;jettySize=auto;html=1;" edge="1" parent="1" source="BeoJGPq0pLL4U1cy-FSC-1" target="BeoJGPq0pLL4U1cy-FSC-2">
          <mxGeometry relative="1" as="geometry" />
        </mxCell>
        <mxCell id="BeoJGPq0pLL4U1cy-FSC-1" value="Начало" style="rounded=1;whiteSpace=wrap;html=1;" vertex="1" parent="1">
          <mxGeometry x="320" y="10" width="120" height="60" as="geometry" />
        </mxCell>
        <mxCell id="BeoJGPq0pLL4U1cy-FSC-5" value="" style="edgeStyle=orthogonalEdgeStyle;rounded=0;orthogonalLoop=1;jettySize=auto;html=1;" edge="1" parent="1" source="BeoJGPq0pLL4U1cy-FSC-2" target="BeoJGPq0pLL4U1cy-FSC-4">
          <mxGeometry relative="1" as="geometry" />
        </mxCell>
        <mxCell id="BeoJGPq0pLL4U1cy-FSC-2" value="input_data" style="shape=parallelogram;perimeter=parallelogramPerimeter;whiteSpace=wrap;html=1;fixedSize=1;rounded=1;" vertex="1" parent="1">
          <mxGeometry x="320" y="90" width="120" height="60" as="geometry" />
        </mxCell>
        <mxCell id="BeoJGPq0pLL4U1cy-FSC-7" value="" style="edgeStyle=orthogonalEdgeStyle;rounded=0;orthogonalLoop=1;jettySize=auto;html=1;" edge="1" parent="1" source="BeoJGPq0pLL4U1cy-FSC-4" target="BeoJGPq0pLL4U1cy-FSC-6">
          <mxGeometry relative="1" as="geometry" />
        </mxCell>
        <mxCell id="BeoJGPq0pLL4U1cy-FSC-4" value="nums = map(&lt;br&gt;int, &lt;br&gt;input_data.split(&#39; &#39;))" style="whiteSpace=wrap;html=1;rounded=1;" vertex="1" parent="1">
          <mxGeometry x="320" y="170" width="120" height="60" as="geometry" />
        </mxCell>
        <mxCell id="BeoJGPq0pLL4U1cy-FSC-9" value="" style="edgeStyle=orthogonalEdgeStyle;rounded=0;orthogonalLoop=1;jettySize=auto;html=1;" edge="1" parent="1" source="BeoJGPq0pLL4U1cy-FSC-6" target="BeoJGPq0pLL4U1cy-FSC-8">
          <mxGeometry relative="1" as="geometry" />
        </mxCell>
        <mxCell id="BeoJGPq0pLL4U1cy-FSC-6" value="m" style="whiteSpace=wrap;html=1;rounded=1;" vertex="1" parent="1">
          <mxGeometry x="320" y="250" width="120" height="60" as="geometry" />
        </mxCell>
        <mxCell id="BeoJGPq0pLL4U1cy-FSC-13" value="" style="edgeStyle=orthogonalEdgeStyle;rounded=0;orthogonalLoop=1;jettySize=auto;html=1;" edge="1" parent="1" source="BeoJGPq0pLL4U1cy-FSC-8" target="BeoJGPq0pLL4U1cy-FSC-12">
          <mxGeometry relative="1" as="geometry" />
        </mxCell>
        <mxCell id="BeoJGPq0pLL4U1cy-FSC-8" value="item in nums" style="rhombus;whiteSpace=wrap;html=1;rounded=1;" vertex="1" parent="1">
          <mxGeometry x="320" y="330" width="120" height="60" as="geometry" />
        </mxCell>
        <mxCell id="BeoJGPq0pLL4U1cy-FSC-15" value="" style="edgeStyle=orthogonalEdgeStyle;rounded=0;orthogonalLoop=1;jettySize=auto;html=1;" edge="1" parent="1" source="BeoJGPq0pLL4U1cy-FSC-12" target="BeoJGPq0pLL4U1cy-FSC-14">
          <mxGeometry relative="1" as="geometry" />
        </mxCell>
        <mxCell id="BeoJGPq0pLL4U1cy-FSC-12" value="m &amp;gt; item" style="rhombus;whiteSpace=wrap;html=1;rounded=1;" vertex="1" parent="1">
          <mxGeometry x="320" y="400" width="120" height="60" as="geometry" />
        </mxCell>
        <mxCell id="BeoJGPq0pLL4U1cy-FSC-17" value="" style="edgeStyle=orthogonalEdgeStyle;rounded=0;orthogonalLoop=1;jettySize=auto;html=1;" edge="1" parent="1" source="BeoJGPq0pLL4U1cy-FSC-14" target="BeoJGPq0pLL4U1cy-FSC-16">
          <mxGeometry relative="1" as="geometry" />
        </mxCell>
        <mxCell id="BeoJGPq0pLL4U1cy-FSC-14" value="m = item" style="whiteSpace=wrap;html=1;rounded=1;" vertex="1" parent="1">
          <mxGeometry x="320" y="470" width="120" height="60" as="geometry" />
        </mxCell>
        <mxCell id="BeoJGPq0pLL4U1cy-FSC-19" value="" style="edgeStyle=orthogonalEdgeStyle;rounded=0;orthogonalLoop=1;jettySize=auto;html=1;" edge="1" parent="1" source="BeoJGPq0pLL4U1cy-FSC-16" target="BeoJGPq0pLL4U1cy-FSC-18">
          <mxGeometry relative="1" as="geometry" />
        </mxCell>
        <mxCell id="BeoJGPq0pLL4U1cy-FSC-16" value="min_value = m" style="whiteSpace=wrap;html=1;rounded=1;" vertex="1" parent="1">
          <mxGeometry x="320" y="550" width="120" height="60" as="geometry" />
        </mxCell>
        <mxCell id="BeoJGPq0pLL4U1cy-FSC-21" value="" style="edgeStyle=orthogonalEdgeStyle;rounded=0;orthogonalLoop=1;jettySize=auto;html=1;" edge="1" parent="1" source="BeoJGPq0pLL4U1cy-FSC-18" target="BeoJGPq0pLL4U1cy-FSC-20">
          <mxGeometry relative="1" as="geometry" />
        </mxCell>
        <mxCell id="BeoJGPq0pLL4U1cy-FSC-18" value="min_value" style="shape=parallelogram;perimeter=parallelogramPerimeter;whiteSpace=wrap;html=1;fixedSize=1;rounded=1;" vertex="1" parent="1">
          <mxGeometry x="320" y="630" width="120" height="60" as="geometry" />
        </mxCell>
        <mxCell id="BeoJGPq0pLL4U1cy-FSC-20" value="Конец" style="whiteSpace=wrap;html=1;rounded=1;" vertex="1" parent="1">
          <mxGeometry x="320" y="710" width="120" height="60" as="geometry" />
        </mxCell>
        <mxCell id="BeoJGPq0pLL4U1cy-FSC-24" value="" style="endArrow=none;html=1;entryX=1;entryY=0.5;entryDx=0;entryDy=0;" edge="1" parent="1" target="BeoJGPq0pLL4U1cy-FSC-12">
          <mxGeometry width="50" height="50" relative="1" as="geometry">
            <mxPoint x="460" y="430" as="sourcePoint" />
            <mxPoint x="440" y="480" as="targetPoint" />
          </mxGeometry>
        </mxCell>
        <mxCell id="BeoJGPq0pLL4U1cy-FSC-27" value="" style="endArrow=none;html=1;" edge="1" parent="1">
          <mxGeometry width="50" height="50" relative="1" as="geometry">
            <mxPoint x="460" y="540" as="sourcePoint" />
            <mxPoint x="460" y="430" as="targetPoint" />
          </mxGeometry>
        </mxCell>
        <mxCell id="BeoJGPq0pLL4U1cy-FSC-28" value="" style="endArrow=classic;html=1;" edge="1" parent="1">
          <mxGeometry width="50" height="50" relative="1" as="geometry">
            <mxPoint x="460" y="540" as="sourcePoint" />
            <mxPoint x="380" y="540" as="targetPoint" />
          </mxGeometry>
        </mxCell>
        <mxCell id="BeoJGPq0pLL4U1cy-FSC-29" value="Нет" style="text;html=1;strokeColor=none;fillColor=none;align=center;verticalAlign=middle;whiteSpace=wrap;rounded=0;" vertex="1" parent="1">
          <mxGeometry x="440" y="410" width="40" height="20" as="geometry" />
        </mxCell>
        <mxCell id="BeoJGPq0pLL4U1cy-FSC-30" value="Да" style="text;html=1;strokeColor=none;fillColor=none;align=center;verticalAlign=middle;whiteSpace=wrap;rounded=0;" vertex="1" parent="1">
          <mxGeometry x="394" y="450" width="40" height="20" as="geometry" />
        </mxCell>
        <mxCell id="BeoJGPq0pLL4U1cy-FSC-32" value="" style="endArrow=none;html=1;exitX=1;exitY=0.5;exitDx=0;exitDy=0;" edge="1" parent="1" source="BeoJGPq0pLL4U1cy-FSC-8">
          <mxGeometry width="50" height="50" relative="1" as="geometry">
            <mxPoint x="440" y="400" as="sourcePoint" />
            <mxPoint x="480" y="360" as="targetPoint" />
          </mxGeometry>
        </mxCell>
        <mxCell id="BeoJGPq0pLL4U1cy-FSC-33" value="" style="endArrow=none;html=1;" edge="1" parent="1">
          <mxGeometry width="50" height="50" relative="1" as="geometry">
            <mxPoint x="480" y="360" as="sourcePoint" />
            <mxPoint x="480" y="620" as="targetPoint" />
          </mxGeometry>
        </mxCell>
        <mxCell id="BeoJGPq0pLL4U1cy-FSC-35" value="" style="endArrow=classic;html=1;" edge="1" parent="1">
          <mxGeometry width="50" height="50" relative="1" as="geometry">
            <mxPoint x="480" y="620" as="sourcePoint" />
            <mxPoint x="380" y="620" as="targetPoint" />
          </mxGeometry>
        </mxCell>
        <mxCell id="BeoJGPq0pLL4U1cy-FSC-38" value="Нет" style="text;html=1;strokeColor=none;fillColor=none;align=center;verticalAlign=middle;whiteSpace=wrap;rounded=0;" vertex="1" parent="1">
          <mxGeometry x="440" y="340" width="40" height="20" as="geometry" />
        </mxCell>
        <mxCell id="BeoJGPq0pLL4U1cy-FSC-39" value="Да" style="text;html=1;strokeColor=none;fillColor=none;align=center;verticalAlign=middle;whiteSpace=wrap;rounded=0;" vertex="1" parent="1">
          <mxGeometry x="394" y="380" width="40" height="20" as="geometry" />
        </mxCell>
      </root>
    </mxGraphModel>
  </diagram>
</mxfile>
